HIERARCHY
ROOT mixamorig:Hips
{
  OFFSET 0.0485291 104.349 2.26454
  CHANNELS 6 Xposition Yposition Zposition Zrotation Xrotation Yrotation
  JOINT mixamorig:Spine
  {
    OFFSET 0 10.1824 0
    CHANNELS 3 Zrotation Xrotation Yrotation
    JOINT mixamorig:Spine1
    {
      OFFSET 0 10.0027 0
      CHANNELS 3 Zrotation Xrotation Yrotation
      JOINT mixamorig:Spine2
      {
        OFFSET 0 9.32208 0
        CHANNELS 3 Zrotation Xrotation Yrotation
        JOINT mixamorig:Neck
        {
          OFFSET 0 16.8657 0
          CHANNELS 3 Zrotation Xrotation Yrotation
          JOINT mixamorig:Head
          {
            OFFSET 0 9.34197 2.84106
            CHANNELS 3 Zrotation Xrotation Yrotation
            End Site
            {
              OFFSET 0 20.9628 10.1229
            }
          }
        }
        JOINT mixamorig:RightShoulder
        {
          OFFSET -4.56997 11.1958 -0.806633
          CHANNELS 3 Zrotation Xrotation Yrotation
          JOINT mixamorig:RightArm
          {
            OFFSET 0 10.8382 0
            CHANNELS 3 Zrotation Xrotation Yrotation
            JOINT mixamorig:RightForeArm
            {
              OFFSET 0 27.8415 0
              CHANNELS 3 Zrotation Xrotation Yrotation
              JOINT mixamorig:RightHand
              {
                OFFSET 3.81718e-05 28.3288 1.14529e-05
                CHANNELS 3 Zrotation Xrotation Yrotation
                JOINT mixamorig:RightHandThumb1
                {
                  OFFSET 2.68185 2.46481 1.57399
                  CHANNELS 3 Zrotation Xrotation Yrotation
                  JOINT mixamorig:RightHandThumb2
                  {
                    OFFSET 0 4.18898 0
                    CHANNELS 3 Zrotation Xrotation Yrotation
                    JOINT mixamorig:RightHandThumb3
                    {
                      OFFSET 0 3.41627 1.11832e-05
                      CHANNELS 3 Zrotation Xrotation Yrotation
                      JOINT mixamorig:RightHandThumb4
                      {
                        OFFSET 0 2.57497 0
                        CHANNELS 3 Zrotation Xrotation Yrotation
                        End Site
                        {
                          OFFSET 0 0 0
                        }
                      }
                    }
                  }
                }
                JOINT mixamorig:RightHandIndex1
                {
                  OFFSET 2.25983 9.10828 0.517873
                  CHANNELS 3 Zrotation Xrotation Yrotation
                  JOINT mixamorig:RightHandIndex2
                  {
                    OFFSET 0 3.7 0
                    CHANNELS 3 Zrotation Xrotation Yrotation
                    JOINT mixamorig:RightHandIndex3
                    {
                      OFFSET 0 2.85 0
                      CHANNELS 3 Zrotation Xrotation Yrotation
                      JOINT mixamorig:RightHandIndex4
                      {
                        OFFSET 0 2.77219 0
                        CHANNELS 3 Zrotation Xrotation Yrotation
                        End Site
                        {
                          OFFSET 0 0 0
                        }
                      }
                    }
                  }
                }
                JOINT mixamorig:RightHandMiddle1
                {
                  OFFSET -2.35541e-05 9.5325 4.98089e-05
                  CHANNELS 3 Zrotation Xrotation Yrotation
                  JOINT mixamorig:RightHandMiddle2
                  {
                    OFFSET 0 3.70001 0
                    CHANNELS 3 Zrotation Xrotation Yrotation
                    JOINT mixamorig:RightHandMiddle3
                    {
                      OFFSET 0 2.95 0
                      CHANNELS 3 Zrotation Xrotation Yrotation
                      JOINT mixamorig:RightHandMiddle4
                      {
                        OFFSET 0 2.94662 0
                        CHANNELS 3 Zrotation Xrotation Yrotation
                        End Site
                        {
                          OFFSET 0 0 0
                        }
                      }
                    }
                  }
                }
                JOINT mixamorig:RightHandRing1
                {
                  OFFSET -1.86513 9.10359 0.0430817
                  CHANNELS 3 Zrotation Xrotation Yrotation
                  JOINT mixamorig:RightHandRing2
                  {
                    OFFSET 0 3.37928 0
                    CHANNELS 3 Zrotation Xrotation Yrotation
                    JOINT mixamorig:RightHandRing3
                    {
                      OFFSET 0 2.88968 -1.51688e-05
                      CHANNELS 3 Zrotation Xrotation Yrotation
                      JOINT mixamorig:RightHandRing4
                      {
                        OFFSET 0 2.63882 0
                        CHANNELS 3 Zrotation Xrotation Yrotation
                        End Site
                        {
                          OFFSET 0 0 0
                        }
                      }
                    }
                  }
                }
                JOINT mixamorig:RightHandPinky1
                {
                  OFFSET -3.80628 8.07668 0.486717
                  CHANNELS 3 Zrotation Xrotation Yrotation
                  JOINT mixamorig:RightHandPinky2
                  {
                    OFFSET 0 3.6 0
                    CHANNELS 3 Zrotation Xrotation Yrotation
                    JOINT mixamorig:RightHandPinky3
                    {
                      OFFSET 0 2.1 0
                      CHANNELS 3 Zrotation Xrotation Yrotation
                      JOINT mixamorig:RightHandPinky4
                      {
                        OFFSET 0 2.11578 0
                        CHANNELS 3 Zrotation Xrotation Yrotation
                        End Site
                        {
                          OFFSET 0 0 0
                        }
                      }
                    }
                  }
                }
              }
            }
          }
        }
        JOINT mixamorig:LeftShoulder
        {
          OFFSET 4.57045 11.1957 -0.806627
          CHANNELS 3 Zrotation Xrotation Yrotation
          JOINT mixamorig:LeftArm
          {
            OFFSET 0 10.8377 0
            CHANNELS 3 Zrotation Xrotation Yrotation
            JOINT mixamorig:LeftForeArm
            {
              OFFSET 0 27.8415 -1.5211e-05
              CHANNELS 3 Zrotation Xrotation Yrotation
              JOINT mixamorig:LeftHand
              {
                OFFSET 1.87219e-05 28.3289 0
                CHANNELS 3 Zrotation Xrotation Yrotation
                JOINT mixamorig:LeftHandThumb1
                {
                  OFFSET -2.68173 2.46615 1.5762
                  CHANNELS 3 Zrotation Xrotation Yrotation
                  JOINT mixamorig:LeftHandThumb2
                  {
                    OFFSET 0 4.18709 0
                    CHANNELS 3 Zrotation Xrotation Yrotation
                    JOINT mixamorig:LeftHandThumb3
                    {
                      OFFSET 0 3.41839 -1.18805e-05
                      CHANNELS 3 Zrotation Xrotation Yrotation
                      JOINT mixamorig:LeftHandThumb4
                      {
                        OFFSET 0 2.58058 0
                        CHANNELS 3 Zrotation Xrotation Yrotation
                        End Site
                        {
                          OFFSET 0 0 0
                        }
                      }
                    }
                  }
                }
                JOINT mixamorig:LeftHandIndex1
                {
                  OFFSET -2.25986 9.10931 0.518033
                  CHANNELS 3 Zrotation Xrotation Yrotation
                  JOINT mixamorig:LeftHandIndex2
                  {
                    OFFSET 0 3.7 0
                    CHANNELS 3 Zrotation Xrotation Yrotation
                    JOINT mixamorig:LeftHandIndex3
                    {
                      OFFSET 0 2.85 -1.06953e-05
                      CHANNELS 3 Zrotation Xrotation Yrotation
                      JOINT mixamorig:LeftHandIndex4
                      {
                        OFFSET 0 2.77487 0
                        CHANNELS 3 Zrotation Xrotation Yrotation
                        End Site
                        {
                          OFFSET 0 0 0
                        }
                      }
                    }
                  }
                }
                JOINT mixamorig:LeftHandMiddle1
                {
                  OFFSET -3.63983e-05 9.5334 -3.13053e-05
                  CHANNELS 3 Zrotation Xrotation Yrotation
                  JOINT mixamorig:LeftHandMiddle2
                  {
                    OFFSET 0 3.69999 -1.06491e-05
                    CHANNELS 3 Zrotation Xrotation Yrotation
                    JOINT mixamorig:LeftHandMiddle3
                    {
                      OFFSET 0 2.95 0
                      CHANNELS 3 Zrotation Xrotation Yrotation
                      JOINT mixamorig:LeftHandMiddle4
                      {
                        OFFSET 0 2.95287 0
                        CHANNELS 3 Zrotation Xrotation Yrotation
                        End Site
                        {
                          OFFSET 0 0 0
                        }
                      }
                    }
                  }
                }
                JOINT mixamorig:LeftHandRing1
                {
                  OFFSET 1.86508 9.10453 0.0430286
                  CHANNELS 3 Zrotation Xrotation Yrotation
                  JOINT mixamorig:LeftHandRing2
                  {
                    OFFSET 0 3.15 0
                    CHANNELS 3 Zrotation Xrotation Yrotation
                    JOINT mixamorig:LeftHandRing3
                    {
                      OFFSET 0 2.95 0
                      CHANNELS 3 Zrotation Xrotation Yrotation
                      JOINT mixamorig:LeftHandRing4
                      {
                        OFFSET -2.4112e-05 2.64432 0
                        CHANNELS 3 Zrotation Xrotation Yrotation
                        End Site
                        {
                          OFFSET 0 0 0
                        }
                      }
                    }
                  }
                }
                JOINT mixamorig:LeftHandPinky1
                {
                  OFFSET 3.80626 8.07778 0.48688
                  CHANNELS 3 Zrotation Xrotation Yrotation
                  JOINT mixamorig:LeftHandPinky2
                  {
                    OFFSET 0 3.6 0
                    CHANNELS 3 Zrotation Xrotation Yrotation
                    JOINT mixamorig:LeftHandPinky3
                    {
                      OFFSET 0 2.1 0
                      CHANNELS 3 Zrotation Xrotation Yrotation
                      JOINT mixamorig:LeftHandPinky4
                      {
                        OFFSET 0 2.12553 0
                        CHANNELS 3 Zrotation Xrotation Yrotation
                        End Site
                        {
                          OFFSET 0 0 0
                        }
                      }
                    }
                  }
                }
              }
            }
          }
        }
      }
    }
  }
  JOINT mixamorig:RightUpLeg
  {
    OFFSET -8.20778 -6.77176 -1.51222
    CHANNELS 3 Zrotation Xrotation Yrotation
    JOINT mixamorig:RightLeg
    {
      OFFSET 0.002257 44.3715 0.0513078
      CHANNELS 3 Zrotation Xrotation Yrotation
      JOINT mixamorig:RightFoot
      {
        OFFSET 0 44.5279 0
        CHANNELS 3 Zrotation Xrotation Yrotation
        JOINT mixamorig:RightToeBase
        {
          OFFSET 0 13.8169 0
          CHANNELS 3 Zrotation Xrotation Yrotation
          End Site
          {
            OFFSET 0 9.27812 0
          }
        }
      }
    }
  }
  JOINT mixamorig:LeftUpLeg
  {
    OFFSET 8.20778 -6.7718 -1.51221
    CHANNELS 3 Zrotation Xrotation Yrotation
    JOINT mixamorig:LeftLeg
    {
      OFFSET 0.00186506 44.3715 0.0150867
      CHANNELS 3 Zrotation Xrotation Yrotation
      JOINT mixamorig:LeftFoot
      {
        OFFSET 0 44.5279 -1.7915e-05
        CHANNELS 3 Zrotation Xrotation Yrotation
        JOINT mixamorig:LeftToeBase
        {
          OFFSET 0 13.8169 0
          CHANNELS 3 Zrotation Xrotation Yrotation
          End Site
          {
            OFFSET 0 9.27814 0
          }
        }
      }
    }
  }
}
MOTION
Frames: 4
Frame Time: 0.033333
0.0550611 104.348 2.26181 -0.46252 2.17275 0.0582267 -0.0529223 -8.4324 -0.0805656 -0.106474 1.52313 -0.132746 -0.100005 3.00194 -0.14369 1.70982 -5.70155 -1.0209 -0.261338 -4.68018 -0.303258 96.5158 -19.0239 -101.089 -41.7793 68.8094 -9.08879 -22.5927 2.25318e-05 1.96622e-05 4.24657 -6.87872 4.89738 -30.9004 26.556 14.9798 1.06542 -0.266602 -0.131651 0.792804 -0.191403 -0.0912405 -5.47213 1.31284 -13.4504 -0.0188228 -6.99048e-05 4.97562e-06 0.029291 8.90395e-07 -2.53635e-06 -0.0100729 1.93509e-06 -2.67569e-06 0.00997268 1.28535e-05 0.114894 -0.0575049 -0.000111036 -2.14698e-06 0.0973866 1.65617e-06 -9.74699e-07 -0.0368808 -3.62026e-06 -7.75601e-07 0.0190703 3.62978e-05 0.106435 0.0178506 8.24439e-06 -2.79662e-06 -0.0253822 0.000317248 7.93744e-06 -0.0129239 2.57319e-06 -3.32545e-06 -0.091591 -2.72622e-05 0.0167361 0.059625 0.000539 -2.13858e-06 0.0969724 4.01085e-05 5.66565e-06 -0.0569248 -4.50516e-06 -1.94539e-06 -0.00473154 -1.10106e-05 0.179852 -92.25 -16.0422 97.4366 31.1657 71.6524 16.4413 22.2286 3.95878e-05 2.9439e-05 -4.8862 -5.28291 -11.7946 30.7775 26.5578 -14.9111 -0.940955 -0.237842 0.11754 -0.695804 -0.175999 0.0843317 4.66631 1.17119 14.0587 -0.00505039 8.05838e-05 1.31338e-06 0.0120435 0.000302285 -5.28506e-06 -0.00759125 3.52589e-05 4.05418e-06 -0.00149332 -8.4841e-09 -0.0432669 -0.00362467 5.1049e-05 3.80657e-07 0.00242916 -1.91388e-05 3.02522e-06 0.00236861 -5.00111e-05 -5.06268e-06 0.00320934 -6.58119e-06 -0.117355 0.000719075 7.53319e-05 -2.91248e-06 -6.36111e-15 7.95139e-16 -0 3.18055e-15 3.18055e-15 -0 0.00184023 -3.17289e-05 0.0565431 0.234315 -0.000566504 7.75581e-06 -0.0241368 7.27809e-05 -9.04807e-06 -0.00768651 1.36593e-05 1.09473e-05 -0.0338513 5.13838e-05 -0.0897786 -179.489 -1.09448 -2.19021 0.00128144 -4.83024 0.000488756 -14.2334 58.9721 17.0939 -1.76925e-05 37.7666 5.80654e-06 -179.248 -0.563428 -6.58645 -0.00448499 -6.19264 -0.0117525 -7.94258 59.8513 8.14429 -3.45222e-05 39.4322 1.65572e-05 
0.085109 104.346 2.29486 -0.460939 2.1635 0.127774 -0.0498016 -8.43782 -0.0918614 -0.0958622 1.51395 -0.164514 -0.0930691 2.9911 -0.16735 1.63896 -5.63314 -0.956395 -0.337119 -4.61516 -0.178014 96.561 -19.0476 -101.084 -41.8746 68.7619 -8.91804 -22.6339 -1.87199e-05 5.96264e-06 4.29628 -6.89694 4.86792 -30.9004 26.556 14.9798 1.06543 -0.266602 -0.131651 0.7928 -0.191402 -0.0912397 -5.47213 1.31284 -13.4504 -0.0188204 -6.94764e-05 1.95387e-06 0.02929 8.68932e-07 2.62588e-06 -0.0100694 1.58657e-06 -3.7192e-06 0.00997089 1.523e-05 0.114894 -0.057504 -0.000113235 9.83922e-07 0.0973886 4.80396e-06 -2.24538e-07 -0.0368822 -3.05122e-06 -1.22371e-06 0.0190711 3.4909e-05 0.106435 0.0178509 8.25802e-06 -1.30905e-06 -0.0253783 0.00030119 3.58987e-06 -0.0129255 5.6642e-06 1.8864e-06 -0.0915902 -2.85998e-05 0.0167337 0.0596282 0.000539261 3.90969e-08 0.0969756 3.63127e-05 3.08412e-06 -0.0569316 -1.52994e-06 -1.83609e-06 -0.00472622 -1.21088e-05 0.179851 -92.3244 -16.0927 97.4822 31.5416 71.5509 16.2615 22.8295 -1.9307e-05 5.94168e-05 -4.99429 -5.4067 -11.5647 30.7775 26.5578 -14.9111 -0.940957 -0.237841 0.117542 -0.695803 -0.176 0.0843282 4.6663 1.17119 14.0587 -0.00504984 7.84016e-05 3.64009e-06 0.0120405 0.000295751 -5.16261e-06 -0.0075916 3.43538e-05 1.09055e-06 -0.00149373 -5.77553e-07 -0.0432684 -0.00362698 5.13719e-05 -1.44728e-06 0.00242926 -2.16253e-05 5.19493e-06 0.00237303 -4.7448e-05 -6.4001e-07 0.0032066 -7.06957e-06 -0.117357 0.000717438 7.54387e-05 -2.74365e-06 4.84698e-06 6.97979e-07 5.09849e-06 -3.18055e-15 2.38542e-15 -3.18055e-15 0.00184027 -3.18552e-05 0.0565431 0.234313 -0.000566499 6.63084e-06 -0.0241355 7.28949e-05 -7.26937e-06 -0.00768872 1.1897e-05 6.02055e-06 -0.0338518 5.36514e-05 -0.0897705 -179.502 -1.2189 -2.17092 -0.00309803 -4.74093 0.000471714 -14.3192 58.983 17.2031 -2.74672e-05 37.7434 1.11416e-05 -179.267 -0.624481 -6.54946 -0.00455332 -6.11353 -0.0117447 -8.00397 59.8316 8.21645 -1.96402e-05 39.4305 7.83948e-06 
0.113807 104.346 2.31823 -0.446191 2.16878 0.17826 -0.049844 -8.44402 -0.104563 -0.0962995 1.50558 -0.19274 -0.0923413 2.97868 -0.192771 1.56821 -5.63883 -0.88871 -0.365758 -4.54144 -0.117534 96.6188 -19.084 -101.075 -41.8937 68.6966 -8.69146 -22.7185 -7.513e-06 2.75443e-05 4.13125 -6.95679 5.01147 -30.9004 26.556 14.9798 1.06543 -0.266606 -0.131651 0.792801 -0.191402 -0.0912427 -5.47213 1.31284 -13.4504 -0.0188199 -6.95906e-05 -1.02021e-06 0.0292879 -8.68558e-07 2.03524e-06 -0.0100637 -1.82402e-06 -1.07208e-06 0.00996847 1.83775e-05 0.114898 -0.0575012 -0.000113132 3.49584e-06 0.0973894 7.43159e-07 1.22601e-06 -0.0368823 -2.9058e-06 -5.76291e-06 0.0190689 3.88447e-05 0.106436 0.0178538 6.07044e-06 3.03763e-06 -0.0253817 0.000249809 1.48554e-07 -0.0129233 7.96838e-06 -3.72922e-08 -0.0915901 -3.0658e-05 0.0167346 0.059628 0.000537405 4.88625e-06 0.0969788 6.34578e-05 -1.59568e-06 -0.0569337 -3.7227e-06 -5.67869e-06 -0.00472424 -8.71153e-06 0.179854 -92.3227 -16.0949 97.4984 31.5953 71.5377 16.3343 23.3619 3.94313e-05 4.07301e-05 -5.00521 -5.586 -11.1849 30.7775 26.5578 -14.9111 -0.940959 -0.237835 0.117542 -0.695806 -0.176001 0.0843333 4.6663 1.17119 14.0587 -0.00505242 7.95851e-05 -4.89454e-07 0.0120405 0.000300805 1.53775e-07 -0.00759056 3.36539e-05 -2.93939e-06 -0.00149702 1.8428e-06 -0.0432657 -0.00363076 5.14168e-05 -4.62964e-06 0.00242729 -1.88859e-05 4.58685e-06 0.00237624 -4.80071e-05 3.27683e-06 0.00320777 -7.62903e-06 -0.117363 0.000717555 7.59969e-05 -6.21299e-06 6.36111e-15 -7.95139e-16 -3.18055e-15 -1.76556e-31 -1.59028e-15 -6.36111e-15 0.00184566 -3.14238e-05 0.0565494 0.234316 -0.000567741 2.39106e-06 -0.0241418 7.31887e-05 -4.77437e-06 -0.00768852 1.37262e-05 6.92042e-06 -0.0338475 5.46124e-05 -0.089771 -179.524 -1.2686 -2.36831 -0.0042694 -4.69348 0.000778468 -14.6757 58.9435 17.6673 -1.82642e-05 37.7188 6.11355e-06 -179.297 -0.688937 -6.58418 -0.0060254 -6.00063 -0.0118516 -8.16406 59.7815 8.38792 -1.61539e-05 39.43 8.10406e-06 
0.118913 104.34 2.32403 -0.441387 2.15639 0.219824 -0.0500862 -8.44144 -0.115873 -0.0943618 1.50332 -0.214002 -0.0920887 2.98387 -0.215335 1.50866 -5.64548 -0.922553 -0.374918 -4.56573 0.000690699 96.648 -19.1306 -101.057 -41.9717 68.6443 -8.52221 -22.8071 -0.000101227 -3.2141e-05 4.1227 -6.99919 5.05353 -30.9004 26.556 14.9798 1.06543 -0.266605 -0.131649 0.792802 -0.191401 -0.091244 -5.47213 1.31283 -13.4504 -0.0188208 -6.69108e-05 1.81673e-06 0.0292913 -1.72446e-06 -6.54898e-06 -0.0100658 3.48336e-07 3.93211e-06 0.00996983 1.5046e-05 0.114895 -0.0575027 -0.000108332 -4.80872e-06 0.0973891 -9.30089e-07 3.3713e-06 -0.0368796 -4.18558e-06 -6.21712e-06 0.0190663 4.09385e-05 0.106436 0.0178544 9.85892e-06 1.03742e-06 -0.0253825 0.000287323 2.65916e-06 -0.0129202 6.09344e-06 -7.03978e-06 -0.091591 -3.18988e-05 0.0167413 0.059627 0.000539592 1.41216e-06 0.0969727 6.52999e-05 -1.59234e-06 -0.0569262 -6.08453e-06 -4.51515e-07 -0.00472566 -6.73797e-06 0.179851 -92.2795 -16.079 97.4914 31.5821 71.5368 16.9262 23.8755 6.90494e-05 -9.74133e-06 -5.0189 -5.58592 -10.7639 30.7775 26.5578 -14.9111 -0.940957 -0.237838 0.117538 -0.695805 -0.176 0.0843358 4.6663 1.17119 14.0587 -0.00505268 7.91994e-05 -1.86104e-06 0.0120415 0.000264633 1.69642e-06 -0.0075877 3.44307e-05 -8.4908e-07 -0.00149736 9.03472e-07 -0.0432657 -0.0036313 5.08367e-05 -6.74753e-06 0.00242791 -1.88486e-05 9.73554e-06 0.0023723 -4.78533e-05 -2.3989e-06 0.00320953 -8.84662e-06 -0.117358 0.000718062 7.20687e-05 -5.7e-06 -1.32417e-31 -7.95139e-16 -9.54166e-15 -4.41391e-32 -7.95139e-16 -3.18055e-15 0.00184625 -2.88015e-05 0.0565542 0.234314 -0.000570039 3.84272e-06 -0.0241424 7.23934e-05 -3.6679e-06 -0.00768616 1.83744e-05 7.99987e-06 -0.0338471 5.05385e-05 -0.0897769 -179.528 -1.27944 -2.59953 -0.0031871 -4.69871 0.00101847 -15.077 58.8811 18.1624 -1.612e-05 37.7212 5.40194e-06 -179.311 -0.75574 -6.65634 -0.00627195 -5.90869 -0.0119943 -8.35252 59.7312 8.60063 -1.1047e-05 39.4537 4.04676e-06 
